<svg width="40" height="40" viewBox="0 0 40 40" fill="none" xmlns="http://www.w3.org/2000/svg">
<mask id="mask0_28_40" style="mask-type:alpha" maskUnits="userSpaceOnUse" x="0" y="0" width="40" height="40">
<rect width="40" height="40" fill="#D9D9D9"/>
</mask>
<g mask="url(#mask0_28_40)">
<path d="M3.33334 30.5557V24.5001C3.33334 23.2038 3.75001 22.139 4.58334 21.3056C5.41668 20.4723 6.48148 20.0556 7.77776 20.0556H10.0556V9.4445C10.0556 8.68061 10.3276 8.02668 10.8716 7.48271C11.4155 6.93873 12.0695 6.66675 12.8333 6.66675H27.1667C27.9306 6.66675 28.5845 6.93873 29.1285 7.48271C29.6725 8.02668 29.9445 8.68061 29.9445 9.4445V20.0556H32.2223C33.5185 20.0556 34.5833 20.4723 35.4167 21.3056C36.25 22.139 36.6667 23.2038 36.6667 24.5001V30.5557C36.6667 31.3196 36.3947 31.9735 35.8507 32.5175C35.3068 33.0614 34.6528 33.3334 33.8889 33.3334H6.11109C5.3472 33.3334 4.69327 33.0614 4.1493 32.5175C3.60533 31.9735 3.33334 31.3196 3.33334 30.5557ZM12.8333 20.0556H27.1667V9.4445H12.8333V20.0556ZM6.11109 30.5557H33.8889V24.5001C33.8889 23.9723 33.7431 23.5626 33.4514 23.2709C33.1598 22.9792 32.75 22.8334 32.2223 22.8334H7.77776C7.24998 22.8334 6.84026 22.9792 6.54859 23.2709C6.25693 23.5626 6.11109 23.9723 6.11109 24.5001V30.5557ZM30.5327 27.1389C30.9276 27.1389 31.257 27.0054 31.5208 26.7382C31.7847 26.4711 31.9167 26.1401 31.9167 25.7452C31.9167 25.3503 31.7831 25.0209 31.516 24.757C31.2488 24.4931 30.9178 24.3612 30.5229 24.3612C30.128 24.3612 29.7987 24.4947 29.5348 24.7619C29.2709 25.029 29.1389 25.36 29.1389 25.7549C29.1389 26.1498 29.2725 26.4792 29.5396 26.7431C29.8068 27.007 30.1378 27.1389 30.5327 27.1389Z" fill="white"/>
</g>
</svg>
