<?xml version="1.0" encoding="UTF-8"?>
<svg version="1.1" xmlns="http://www.w3.org/2000/svg" width="1543" height="1365">
<path d="M0 0 C1.06499051 -0.00384115 2.12998101 -0.00768229 3.22724396 -0.01163983 C4.39123355 -0.01077335 5.55522313 -0.00990687 6.75448513 -0.00901413 C7.99577393 -0.01198525 9.23706274 -0.01495637 10.51596636 -0.01801753 C13.95899757 -0.02519144 17.40197888 -0.02787636 20.84501398 -0.028615 C24.55957908 -0.03046793 28.27413342 -0.03801657 31.98869228 -0.04475021 C40.11084223 -0.05832541 48.23298724 -0.06435723 56.35514665 -0.06876087 C61.42930503 -0.07152516 66.5034615 -0.0757629 71.5776186 -0.08026505 C85.63343753 -0.09245757 99.68925494 -0.10275632 113.74507904 -0.10614014 C114.64450612 -0.1063597 115.5439332 -0.10657927 116.47061565 -0.10680549 C117.37216878 -0.10702377 118.2737219 -0.10724204 119.20259482 -0.10746694 C121.02941612 -0.1079104 122.85623743 -0.10835696 124.68305874 -0.10880661 C125.58922101 -0.10902804 126.49538328 -0.10924947 127.42900502 -0.10947761 C142.10285166 -0.11342325 156.77664856 -0.13087019 171.450476 -0.15416613 C186.52505964 -0.17790456 201.59961835 -0.19034315 216.67422098 -0.19150805 C225.13427211 -0.19242351 233.59425848 -0.19814307 242.05429173 -0.21632767 C249.26032439 -0.23176243 256.46627228 -0.23682933 263.67231835 -0.22858956 C267.34571198 -0.22469473 271.01893505 -0.22555516 274.69230747 -0.23964691 C278.68385835 -0.25481847 282.67502841 -0.24648473 286.66659451 -0.23606491 C288.38915631 -0.24814952 288.38915631 -0.24814952 290.14651734 -0.26047826 C307.51665584 -0.15480823 323.56255907 6.27411271 336.27998257 18.19392776 C349.6405904 32.29679159 354.70542815 49.78913412 359.98530483 67.99541092 C381.05605529 140.47450153 405.62792667 212.42038925 434.65498257 282.13142776 C435.32637076 283.74910293 435.99775738 285.36677876 436.66914272 286.98445511 C448.54891408 315.56640364 460.91972914 343.92085561 473.65498257 372.13142776 C473.95926174 372.80659439 474.26354092 373.48176102 474.57704067 374.17738724 C485.66942984 398.77696038 497.71697215 422.93473352 509.65498257 447.13142776 C510.01003872 447.85120804 510.36509487 448.57098831 510.7309103 449.31258011 C517.04832629 462.11228318 523.49533375 474.83410477 530.21357632 487.42830276 C531.25725944 489.38556218 532.29863073 491.34405493 533.33857632 493.30330276 C541.35036733 508.39648325 549.53921316 523.36927259 558.00166225 538.21590042 C560.36721962 542.38741343 562.70052713 546.57669274 565.03535366 550.76546097 C571.10012385 561.64222728 577.26569663 572.44239151 583.65498257 583.13142776 C584.46008266 584.4827681 584.46008266 584.4827681 585.28144741 585.86140823 C599.37600542 609.51133373 613.75453202 632.97985749 628.65498257 656.13142776 C629.03072414 656.71639023 629.40646572 657.30135269 629.79359341 657.90404129 C637.03361617 669.16946227 644.40932427 680.3411929 651.84345913 691.47932816 C653.65475906 694.19359284 655.46357686 696.9094996 657.27217007 699.62556839 C666.20355657 713.02545929 675.22333122 726.36342024 684.52998257 739.50642776 C685.01990688 740.19937943 685.5098312 740.89233109 686.01460171 741.60628128 C690.76037437 748.30473774 695.56380455 754.96118024 700.38154507 761.60799026 C702.53189639 764.57509224 704.67228573 767.54893281 706.80342007 770.52986526 C713.95654008 780.51964373 721.32343519 790.32751419 728.79560757 800.08064651 C732.21991248 804.55201801 735.60113506 809.05385298 738.96748257 813.56892776 C743.9745321 820.27180532 749.1098482 826.86462087 754.30488491 833.42244339 C755.65254531 835.12834263 756.99284735 836.83975367 758.33076382 838.55330276 C763.74890944 845.48845051 769.24932656 852.34936666 774.81635952 859.16560745 C778.33953143 863.4871979 781.79634158 867.85383223 785.21748257 872.25642776 C789.43319492 877.67015243 793.82529677 882.90522972 798.31538296 888.09285355 C801.31784215 891.56281694 804.26396346 895.06722911 807.15498257 898.63142776 C811.04681635 903.4224578 815.04076586 908.11629786 819.06855679 912.79280472 C822.03586467 916.23866511 824.98168951 919.70073959 827.90595913 923.18318558 C832.56147406 928.72546525 837.34719162 934.11192242 842.24873257 939.44002151 C844.68623725 942.16638633 846.98988489 944.96806987 849.27998257 947.81892776 C852.56788504 951.89407449 856.02151408 955.60873096 859.77217007 959.25642776 C862.19730629 961.67150118 864.40558468 964.2396712 866.63935757 966.83064651 C873.03649674 974.13280731 879.74403337 981.17113297 886.39301968 988.24324417 C888.32250855 990.29766051 890.24685928 992.35679302 892.17060757 994.41658401 C894.20320802 996.59194785 896.25040636 998.74339111 898.32685757 1000.87752151 C907.7384162 1010.75965808 913.4369129 1021.91370659 916.65498257 1035.13142776 C916.84705288 1035.8932637 917.03912319 1036.65509964 917.23701382 1037.44002151 C921.48844921 1064.81608683 908.35087156 1085.47448057 895.30439663 1108.25154495 C893.75815071 1110.95129583 892.21723514 1113.65399883 890.67842007 1116.35799026 C886.49595388 1123.70090203 882.29405986 1131.03226117 878.06123257 1138.34627151 C871.14201155 1150.30346314 864.30076768 1162.29683084 857.57563686 1174.36433792 C853.93615153 1180.88178444 850.21615324 1187.34146788 846.4027853 1193.75838089 C842.98640479 1199.52365281 839.68955258 1205.35273533 836.40498257 1211.19392776 C831.91600839 1219.17579805 827.35188245 1227.10814726 822.71748257 1235.00642776 C817.28727644 1244.26812212 811.99683982 1253.60040577 806.76899624 1262.97761917 C801.62378245 1272.20476517 796.3927809 1281.38063187 791.1359396 1290.5445137 C789.60477706 1293.21912601 788.08024847 1295.89742815 786.55732632 1298.57674026 C781.66401606 1307.17948299 776.74099768 1315.75440978 771.60444546 1324.21467972 C769.61487553 1327.4980917 767.71762493 1330.80995457 765.90498257 1334.19392776 C763.85658958 1337.93632049 761.59533915 1341.03213299 758.65498257 1344.13142776 C757.99498257 1344.13142776 757.33498257 1344.13142776 756.65498257 1344.13142776 C756.4474435 1344.69990433 756.23990444 1345.26838089 756.02607632 1345.85408401 C750.38233481 1355.22816178 734.98787054 1361.00397989 725.02998257 1363.94392776 C707.84482254 1367.66846815 692.19002402 1363.35123452 675.50361538 1359.2998848 C666.17645672 1357.04182428 656.82046815 1354.90444858 647.46748257 1352.75642776 C646.43906246 1352.52023727 645.41064236 1352.28404678 644.35105801 1352.04069901 C553.79501508 1331.28436357 461.89940166 1317.24811768 264.71748257 1300.44392776 C263.53436489 1300.38289871 262.35124722 1300.32186966 261.13227749 1300.25899124 C252.97472603 1299.84406013 244.81583666 1299.4748796 236.65498257 1299.13142776 C235.5282513 1299.08197006 234.40152004 1299.03251236 233.24064541 1298.98155594 C207.26301012 1297.87561088 181.2707935 1297.94400137 155.27436733 1297.94612503 C150.19425246 1297.94620562 145.11422907 1297.9393561 140.03413296 1297.92561722 C93.13557291 1297.80100528 46.33467588 1298.97391409 -0.47001743 1302.00642776 C-1.83669569 1302.09338946 -3.20338504 1302.18017708 -4.57008457 1302.26680374 C-28.86995975 1303.81143791 -53.12263373 1305.64075817 -77.34501743 1308.13142776 C-78.60600254 1308.26055557 -79.86698765 1308.38968338 -81.16618443 1308.52272415 C-142.58799033 1314.8282662 -203.54820193 1323.26977709 -264.34501743 1334.13142776 C-265.24198338 1334.29066727 -266.13894932 1334.44990677 -267.06309605 1334.61397171 C-291.11109634 1338.88594819 -314.98632004 1343.91806632 -338.84501743 1349.13142776 C-339.54261047 1349.28367939 -340.24020351 1349.43593102 -340.95893574 1349.59279633 C-361.14294117 1353.98807502 -361.14294117 1353.98807502 -381.22782993 1358.81111526 C-382.00061787 1359.00568314 -382.7734058 1359.20025101 -383.56961155 1359.40071487 C-384.30591297 1359.58609818 -385.04221439 1359.77148148 -385.80082798 1359.96248245 C-409.405333 1365.89388655 -429.93802173 1366.9625357 -452.00517368 1355.14705276 C-470.47282315 1344.00166431 -479.68073824 1326.00588538 -489.77079868 1307.60408401 C-493.20853887 1301.33990353 -496.78583862 1295.16564622 -500.40751743 1289.00642776 C-504.93320742 1281.29322531 -509.39697306 1273.55019345 -513.78251743 1265.75642776 C-522.59635243 1250.0988933 -531.58415641 1234.54199352 -540.6675272 1219.03938675 C-546.59489121 1208.92036922 -552.38938428 1198.73775587 -558.09306431 1188.49104691 C-562.67921282 1180.27120838 -567.39897738 1172.1358587 -572.1609354 1164.01692581 C-577.26834435 1155.29683716 -582.24530905 1146.50676629 -587.20439243 1137.70174026 C-590.19192172 1132.39731403 -593.1999683 1127.10489768 -596.22001743 1121.81892776 C-596.69850132 1120.98031204 -597.17698521 1120.14169632 -597.66996861 1119.277668 C-600.50813396 1114.31263001 -603.37218724 1109.3635533 -606.25517368 1104.42439651 C-606.9306092 1103.26407909 -607.60590222 1102.10367871 -608.28105259 1100.94319534 C-609.57706319 1098.71778168 -610.8772539 1096.49479495 -612.18241978 1094.27473831 C-623.15554516 1075.41200367 -628.53605429 1057.23469138 -624.34501743 1035.38142776 C-619.81193189 1019.01195219 -610.14540901 1006.45274601 -598.06157017 994.84602737 C-596.32981545 993.11624308 -594.73596448 991.32043399 -593.14189243 989.46345901 C-588.67913461 984.32846447 -583.99294275 979.41631473 -579.30595493 974.48689651 C-575.42869574 970.39257069 -571.65141563 966.23590816 -567.95732212 961.97566605 C-565.68118085 959.37209682 -563.327144 956.84947656 -560.97001743 954.31892776 C-557.47734252 950.5440165 -554.12991736 946.70584492 -550.90751743 942.69392776 C-547.54153236 938.50902682 -544.01302021 934.54852797 -540.34501743 930.63142776 C-535.93756507 925.91989429 -531.77852816 921.08509579 -527.73564243 916.05330276 C-524.94461136 912.64204256 -522.05816291 909.32440749 -519.15751743 906.00642776 C-512.66253561 898.5596608 -506.37891697 890.95076775 -500.12431431 883.30183792 C-498.33448442 881.11857946 -496.53649898 878.94231576 -494.73564243 876.76814651 C-488.40587503 869.1225104 -482.16454307 861.42272928 -476.05986118 853.59627151 C-473.16807934 849.89305801 -470.22576953 846.2312672 -467.28251743 842.56892776 C-462.33458366 836.40118264 -457.47922559 830.16931033 -452.68290806 823.88289261 C-451.24538753 822.00099985 -449.80330727 820.12266066 -448.36064243 818.24470901 C-435.98040954 802.11578827 -423.78510887 785.86208583 -411.93339634 769.34041214 C-410.34091619 767.12572411 -408.74080061 764.91677092 -407.13798618 762.70955276 C-399.70121357 752.46385831 -392.39887398 742.13054984 -385.1663065 731.7398262 C-383.35670764 729.14817015 -381.53577121 726.56483263 -379.71220493 723.98299026 C-361.53234053 698.16125198 -344.29796564 671.60241824 -327.47001743 644.88142776 C-326.98081821 644.10533157 -326.491619 643.32923538 -325.98759556 642.52962112 C-315.91010648 626.51452401 -306.01848331 610.39370842 -296.34501743 594.13142776 C-295.81907993 593.24841995 -295.29314243 592.36541214 -294.75126743 591.45564651 C-287.32885239 578.98384816 -280.03207525 566.44599553 -272.8718729 553.82185745 C-271.30511877 551.06112344 -269.73339738 548.30325501 -268.16142368 545.54549026 C-260.96717905 532.89974661 -253.95820202 520.16251273 -247.07353306 507.34578323 C-245.56625811 504.54284793 -244.05422737 501.74253938 -242.54007053 498.94331741 C-235.90405181 486.67028227 -229.3691553 474.36089938 -223.18949986 461.84993362 C-220.39734358 456.20281183 -217.50381751 450.6235231 -214.53251743 445.06892776 C-208.08362729 432.94197224 -202.20064172 420.53536042 -196.29936314 408.1358223 C-195.33867481 406.11810647 -194.37615534 404.10127194 -193.41337681 402.08455276 C-157.8199037 327.4664814 -126.53227855 250.77543617 -85.08854771 130.38875198 C-84.35405804 128.15887465 -83.61622189 125.93013385 -82.877244 123.70174026 C-81.39953457 119.24362047 -79.93087079 114.78259935 -78.47001743 110.31892776 C-78.10659245 109.20862198 -78.10659245 109.20862198 -77.73582554 108.07588577 C-74.56474734 98.35229642 -71.56543635 88.58681003 -68.68876743 78.77205276 C-68.37889896 77.71750397 -68.06903049 76.66295517 -67.74977207 75.57645035 C-66.22943358 70.39468076 -64.72341802 65.20939555 -63.24003696 60.01692581 C-59.20883784 46.06752522 -54.77986545 34.41120893 -45.34501743 23.13142776 C-44.72626743 22.26517776 -44.10751743 21.39892776 -43.47001743 20.50642776 C-32.7992148 8.58023659 -16.1079419 0.0218693 0 0 Z M263.65498257 224.13142776 C263.09810757 224.75662308 262.54123257 225.38181839 261.96748257 226.02595901 C260.81772488 227.33274379 259.67474446 228.64551544 258.53779507 229.96345901 C256.43922937 232.37985728 254.30058556 234.75671801 252.15498257 237.13142776 C248.9195086 240.71609285 245.72458222 244.33078689 242.56123257 247.97908401 C241.06147106 249.67246227 239.53490329 251.34210169 237.99873257 253.00252151 C237.30928555 253.74804276 237.30928555 253.74804276 236.6059103 254.50862503 C235.27320186 255.94631912 233.93491318 257.37883435 232.59638882 258.81111526 C230.44108019 260.88284813 230.44108019 260.88284813 230.65498257 263.13142776 C229.99498257 263.13142776 229.33498257 263.13142776 228.65498257 263.13142776 C227.32517164 264.62252011 226.06799526 266.17849491 224.84248257 267.75642776 C221.08184833 272.46481473 217.1543311 276.92656462 213.02998257 281.31892776 C209.09643533 285.51112074 205.21526729 289.72323702 201.45967007 294.07674026 C199.06716446 296.80067522 196.61090576 299.46484404 194.15498257 302.13142776 C190.53402949 306.06422743 186.96539209 310.03356929 183.46357632 314.07283401 C181.22487006 316.62099426 178.94088045 319.12553369 176.65498257 321.63142776 C173.20170103 325.41805774 169.79399206 329.23619096 166.43232632 333.10408401 C164.3613877 335.46631949 162.25985409 337.7993863 160.15498257 340.13142776 C157.46514826 343.11205497 154.79187893 346.10388009 152.15498257 349.13142776 C148.76003318 353.02933262 145.29832372 356.86489834 141.83467007 360.70174026 C139.96353163 362.78748957 138.11573425 364.88960405 136.27998257 367.00642776 C132.82782178 370.97239853 129.26747376 374.83660422 125.70674038 378.70466995 C122.54800292 382.14167197 119.4485992 385.62164097 116.38935757 389.14705276 C112.09818304 394.05677497 107.69696149 398.87017594 103.32685757 403.70955276 C99.93153319 407.47443626 96.54439914 411.24336327 93.21748257 415.06892776 C89.56561204 419.26307141 85.81232073 423.36237069 82.06513882 427.47127151 C79.47821262 430.32653365 76.9393974 433.21899093 74.41279507 436.12752151 C72.45494671 438.35946864 70.46248355 440.55763636 68.46748257 442.75642776 C64.15538666 447.52788784 59.97073151 452.40096516 55.81635952 457.30965042 C53.71218712 459.7851887 51.63245654 462.15331873 49.29951382 464.42049026 C47.42399019 465.97622441 47.42399019 465.97622441 47.65498257 468.13142776 C46.99498257 468.13142776 46.33498257 468.13142776 45.65498257 468.13142776 C44.36754142 469.58171946 43.15261481 471.09639934 41.96748257 472.63142776 C37.30865866 478.46817149 32.2959936 483.88806942 27.14839077 489.29549026 C21.37814601 495.36734237 15.88964484 501.65430078 10.48383999 508.05086136 C5.00619567 514.51946046 -0.66767656 520.76822545 -6.47734165 526.93953323 C-9.92272798 530.60019614 -13.2960084 534.3010603 -16.57548618 538.11189651 C-18.9538624 540.82629057 -21.40014097 543.47711902 -23.84501743 546.13142776 C-27.48677454 550.08724578 -31.08001433 554.07704619 -34.60282993 558.13924026 C-36.66002142 560.49163412 -38.75098658 562.81177742 -40.84501743 565.13142776 C-43.53485174 568.11205497 -46.20812107 571.10388009 -48.84501743 574.13142776 C-52.23875758 578.02794423 -55.69931747 581.86207721 -59.16142368 585.69783401 C-61.05350428 587.80653923 -62.92407501 589.93062578 -64.78251743 592.06892776 C-68.43438796 596.26307141 -72.18767927 600.36237069 -75.93486118 604.47127151 C-78.51740627 607.3216981 -81.05156847 610.20968668 -83.57548618 613.11189651 C-87.12079832 617.1580916 -90.74024648 621.13826398 -94.34501743 625.13142776 C-95.84530422 626.79783628 -97.34530616 628.46450129 -98.84501743 630.13142776 C-101.11673033 632.65643269 -103.38937157 635.1805608 -105.66532993 637.70174026 C-109.08335683 641.49053618 -112.49246283 645.28448723 -115.84501743 649.13142776 C-120.71644947 654.72122765 -125.70396893 660.20677674 -130.67314243 665.70955276 C-134.6620632 670.13264178 -138.62069651 674.57757781 -142.53251743 679.06892776 C-145.37649538 682.30517854 -148.27114444 685.49551445 -151.15751743 688.69392776 C-153.07055893 690.82560257 -154.96389355 692.97161887 -156.84501743 695.13142776 C-160.23996682 699.02933262 -163.70167628 702.86489834 -167.16532993 706.70174026 C-169.03646837 708.78748957 -170.88426575 710.88960405 -172.72001743 713.00642776 C-176.17217822 716.97239853 -179.73252624 720.83660422 -183.29325962 724.70466995 C-186.4495145 728.13897069 -189.54708802 731.61563356 -192.60282993 735.13924026 C-194.66002142 737.49163412 -196.75098658 739.81177742 -198.84501743 742.13142776 C-201.51550088 745.09012527 -204.16799802 748.06069248 -206.78251743 751.06892776 C-209.54286285 754.24364374 -212.37294301 757.34680212 -215.22001743 760.44392776 C-218.60130628 764.14285284 -221.83160758 767.91214861 -224.97001743 771.81892776 C-228.25437505 775.88968087 -231.70354974 779.60123827 -235.45048618 783.24470901 C-237.93487874 785.71885665 -240.2109453 788.34241458 -242.49736118 790.99861526 C-244.58218293 793.40519597 -246.71023276 795.76907721 -248.84501743 798.13142776 C-251.53485174 801.11205497 -254.20812107 804.10388009 -256.84501743 807.13142776 C-261.71644947 812.72122765 -266.70396893 818.20677674 -271.67314243 823.70955276 C-275.06846681 827.47443626 -278.45560086 831.24336327 -281.78251743 835.06892776 C-285.43438796 839.26307141 -289.18767927 843.36237069 -292.93486118 847.47127151 C-295.51494879 850.31898572 -298.04703599 853.20386794 -300.56767368 856.10408401 C-303.39934691 859.33405853 -306.2870425 862.51333432 -309.16532993 865.70174026 C-311.03646837 867.78748957 -312.88426575 869.88960405 -314.72001743 872.00642776 C-317.5970348 875.31334428 -320.55696253 878.53848216 -323.53251743 881.75642776 C-327.53352076 886.08809252 -331.40780147 890.50803802 -335.22001743 895.00642776 C-339.94761329 900.58050314 -344.845067 905.96641175 -349.83842564 911.30281448 C-354.68468879 916.48221704 -359.35858649 921.78177005 -363.93876743 927.19783401 C-369.94580059 934.28144709 -376.10685213 941.17180487 -382.47294712 947.9351387 C-385.96188363 951.64249941 -389.3857443 955.38652874 -392.70829868 959.24470901 C-394.72375515 961.56801564 -396.78350206 963.84891242 -398.84501743 966.13142776 C-402.18636547 969.83645994 -405.51815259 973.54726563 -408.77079868 977.33064651 C-409.77998042 978.48507029 -410.81738526 979.61575427 -411.88798618 980.71345901 C-414.34363347 983.32043471 -415.33923206 985.10442938 -416.09501743 988.63142776 C-415.17188524 992.939378 -413.81612919 994.06314458 -410.49708652 996.75783157 C-406.68754313 999.18934008 -402.65019504 999.88538744 -398.25517368 1000.70174026 C-396.76963741 1001.00575256 -396.76963741 1001.00575256 -395.25409031 1001.31590652 C-391.97555069 1001.98257093 -388.69184609 1002.61895417 -385.40751743 1003.25642776 C-383.06636297 1003.72825265 -380.72571323 1004.20258804 -378.38554478 1004.67927933 C-373.4854254 1005.67622591 -368.58358172 1006.66397514 -363.68046665 1007.6460762 C-353.38810658 1009.71813605 -343.12674697 1011.93210543 -332.86473179 1014.14870071 C-327.05073947 1015.4036132 -321.23484933 1016.64967756 -315.41923618 1017.89705276 C-314.22022678 1018.15445236 -313.02121738 1018.41185196 -311.78587437 1018.67705154 C-302.98748335 1020.56575119 -294.18796885 1022.44915337 -285.38801861 1024.33057213 C-278.68604376 1025.76353094 -271.98424564 1027.19731594 -265.28251743 1028.63142776 C-264.53893356 1028.79054264 -263.79534969 1028.94965752 -263.02923298 1029.11359406 C-241.56454519 1033.70725153 -220.1125893 1038.35546402 -198.67097569 1043.05583572 C-180.53474741 1047.02879431 -162.37444004 1050.87753893 -144.20179844 1054.6801033 C-124.79975435 1058.7424434 -105.42504531 1062.92073478 -86.05848789 1067.14825058 C-64.46090507 1071.86277443 -42.85643543 1076.53502926 -21.22001743 1081.06892776 C0.95517092 1085.71690507 23.12120338 1090.40589592 45.27998257 1095.13142776 C46.48435467 1095.38821619 46.48435467 1095.38821619 47.71305752 1095.65019226 C70.04172669 1100.41147735 92.35643703 1105.23167443 114.65724087 1110.12202835 C130.63968176 1113.62494189 146.63914219 1117.03482322 162.65498257 1120.38142776 C191.37355722 1126.38331551 220.04386726 1132.60644249 248.71748257 1138.81892776 C281.10127806 1145.83469541 313.48865326 1152.82992351 345.90498257 1159.69392776 C377.31308652 1166.34544871 408.70558642 1173.06803472 440.09248257 1179.81892776 C441.2430275 1180.06637112 442.39357243 1180.31381447 443.57898235 1180.5687561 C465.9622085 1185.38269749 488.34452329 1190.2008645 510.72518635 1195.0267086 C513.03962647 1195.52574382 515.3540843 1196.02469686 517.66854763 1196.52362442 C519.13871748 1196.84056109 520.60888657 1197.15750132 522.07905483 1197.47444534 C523.13581338 1197.70226338 523.13581338 1197.70226338 524.21392059 1197.9346838 C528.7686488 1198.91673206 533.32306721 1199.90020789 537.87739468 1200.88411331 C543.4088512 1202.07859638 548.9418012 1203.26592445 554.47572231 1204.44893265 C557.79157235 1205.16074964 561.10529445 1205.88203448 564.41914272 1206.60310745 C566.58751557 1207.06866901 568.75596934 1207.53385381 570.92451382 1207.99861526 C571.90602917 1208.21462387 572.88754452 1208.43063248 573.89880276 1208.6531868 C583.13421897 1210.78222432 583.13421897 1210.78222432 591.96748257 1208.31892776 C594.80067679 1206.23262168 594.80067679 1206.23262168 596.65498257 1203.13142776 C597.00690198 1199.48467032 596.4058891 1196.99246156 594.93574429 1193.67195511 C592.29756716 1187.39273761 590.23993864 1180.9658503 588.16279507 1174.48299026 C587.73613422 1173.15979343 587.30918085 1171.83669088 586.88195705 1170.51367569 C585.74538237 1166.99083692 584.61322118 1163.46659469 583.48198223 1159.94203949 C582.53922588 1157.00685386 581.59367919 1154.0725704 580.64810562 1151.13829136 C574.75628531 1132.85406691 568.91361103 1114.55448462 563.11128139 1096.24165726 C559.37920391 1084.46690427 555.55070379 1072.73260153 551.60786343 1061.0264473 C547.62893152 1049.16219871 543.83119552 1037.24110888 540.02998257 1025.31892776 C534.63596637 1008.40163611 529.18449093 991.50492307 523.65498257 974.63142776 C518.27600902 958.21477489 512.96587007 941.77778853 507.71748257 925.31892776 C502.26882503 908.23238688 496.74420362 891.1724992 491.15498257 874.13142776 C485.73685773 857.60977706 480.37435847 841.07214209 475.09248257 824.50642776 C468.38931286 803.4843066 461.59549373 782.49232088 454.77998257 761.50642776 C447.53723736 739.20484337 440.31576922 716.89699381 433.15498257 694.56892776 C427.33984326 676.43687038 421.46576848 658.32525089 415.53852749 640.22954178 C410.17192855 623.84054196 404.89487613 607.42425578 399.65443325 590.99452591 C394.71706851 575.51941501 389.71207811 560.06780718 384.65498257 544.63142776 C379.40663366 528.60884632 374.21655349 512.56918376 369.09248257 496.50642776 C362.60598956 476.17591182 356.04969649 455.86860049 349.46748257 435.56892776 C348.97383883 434.04642664 348.48019666 432.52392502 347.98655605 431.00142288 C346.99560403 427.9451555 346.00464004 424.888892 345.01367092 421.83263016 C344.76825747 421.07574024 344.52284401 420.31885033 344.26999378 419.53902435 C343.77368122 418.00834714 343.27735476 416.47767444 342.78101444 414.94700623 C336.65387554 396.05097536 330.54718383 377.14835268 324.44282436 358.24495316 C324.22953897 357.58447196 324.01625357 356.92399076 323.79650497 356.24349499 C323.58324664 355.58309499 323.36998831 354.92269499 323.1502676 354.24228287 C322.83037396 353.25166446 322.83037396 353.25166446 322.50401783 352.24103355 C322.07377178 350.90866365 321.64353622 349.57629035 321.2133112 348.24391365 C318.33556529 339.33184375 315.45541563 330.42055494 312.57279873 321.51005936 C311.66030589 318.68943819 310.74805475 315.86873906 309.83604336 313.04796219 C309.38262499 311.64560774 308.92920499 310.24325381 308.47578335 308.84090042 C308.25209387 308.14905214 308.02840439 307.45720387 307.79793644 306.74439049 C306.46574772 302.62478756 305.131722 298.5057849 303.79632664 294.38722038 C299.52310489 281.20536846 295.28770095 268.01402831 291.17842007 254.77986526 C290.48709934 252.56575778 289.79553761 250.35172553 289.10371304 248.13777542 C287.83823796 244.08777232 286.59258524 240.03242722 285.35859585 235.97273636 C284.80193586 234.18684401 284.24452978 232.40118397 283.68623257 230.61580276 C283.45068661 229.82015915 283.21514065 229.02451553 282.97245693 228.20476151 C281.43833358 223.37577693 279.68383901 220.43547406 275.65498257 217.13142776 C270.09055899 215.37424137 267.00522042 220.34074916 263.65498257 224.13142776 Z " fill="#FA4616" transform="translate(625.3450174331665,-0.13142776489257813)"/>
</svg>
