<svg xmlns="http://www.w3.org/2000/svg" width="55" height="24" viewBox="0 0 55 24">
    <g fill="#EA037D" fill-rule="nonzero">
        <path d="M31.334 13.92c-1.046 0-1.66-.365-1.66-1.882V5.203l2.841-.24V2.976h-2.841V.01h-3.082v2.966h-1.7v1.987l1.7.24v7.527c0 2.956 1.603 3.945 3.869 3.945.739 0 1.68-.201 2.457-.48v-2.4c-.441.067-.816.125-1.593.125h.01zM54.72 9.706c0 4.425-3.043 6.96-6.614 6.96-3.572 0-6.615-2.612-6.615-6.96 0-4.388 3.043-6.999 6.615-6.999 3.57 0 6.614 2.573 6.614 6.999zm-2.938-.01c0-2.458-1.45-4.358-3.676-4.358-2.218 0-3.677 1.92-3.677 4.358 0 2.41 1.45 4.34 3.677 4.34 2.217 0 3.676-1.873 3.676-4.34zM12.874 8.4v8.006H10.3l-.403-1.267c-.768.883-2.18 1.527-4.426 1.527-2.304 0-4.502-1.45-4.502-4.148 0-2.899 2.265-4.406 5.164-4.406 1.632 0 2.9.346 3.764.662 0-2.304-1.306-3.494-3.792-3.494-1.517 0-2.679.47-3.62.874l-.508-2.19C3.072 3.39 4.646 2.718 6.48 2.718c3.974 0 6.394 2.102 6.394 5.693V8.4zm-2.976 2.4c-.845-.365-1.93-.605-3.082-.605-1.94 0-3.082.797-3.082 2.17 0 1.277 1.143 2.016 2.602 2.016 2.448 0 3.562-1.267 3.562-3.159V10.8zM23.51 3.533c-.72-.288-2.419-.826-4.003-.826-2.438 0-4.953 1.229-4.953 3.917 0 1.862 1.257 3.053 2.812 3.638l2.16.826c1.124.422 1.69.854 1.69 1.613 0 .902-.816 1.45-2.026 1.45-.96 0-2.668-.404-4.368-1.124l-.528 2.247c1.21.844 3.399 1.401 4.82 1.401 2.793 0 5.28-1.373 5.28-4.243 0-1.776-1.143-2.918-2.602-3.504L19.277 7.91c-1.037-.422-1.335-.796-1.335-1.392 0-.633.586-1.267 1.728-1.267 1.296 0 2.688.432 3.274.672l.566-2.39zM37.632 5.146v-2.18h-2.947v13.44h3.081v-6.115c0-3.533 1.786-4.742 3.927-4.742V2.707c-1.44 0-3.235.691-4.051 2.439h-.01zM54.72 16.82c0-.097-.115-.308-.49 0-.288.24-3.984 3.465-12.7 3.465-8.007 0-16.522-2.064-27.37-2.064-5.952 0-10.55 1.574-12.835 2.755-.173.096-.375.202-.375.374 0 .164.221.221.423.164 2.957-.855 6.576-1.076 11.059-1.076 9.514 0 19.411 2.612 27.418 2.612 11.52 0 14.496-5.444 14.678-5.78.086-.144.182-.316.182-.441l.01-.01z"/>
    </g>
</svg>
