<svg width="24" height="24" viewBox="0 0 24 24" fill="none" xmlns="http://www.w3.org/2000/svg">
<mask id="mask0_28_165" style="mask-type:alpha" maskUnits="userSpaceOnUse" x="0" y="0" width="24" height="24">
<rect width="24" height="24" fill="#D9D9D9"/>
</mask>
<g mask="url(#mask0_28_165)">
<path d="M19.4032 20.5C17.5929 20.5 15.743 20.0556 13.8535 19.1669C11.964 18.2783 10.2104 17.0235 8.59266 15.4025C6.97492 13.7816 5.72172 12.028 4.83306 10.1417C3.94437 8.25533 3.50003 6.40705 3.50003 4.5968C3.50003 4.28343 3.60357 4.02229 3.81066 3.81338C4.01774 3.60446 4.2766 3.5 4.58723 3.5H7.57643C7.83445 3.5 8.05544 3.58408 8.2394 3.75225C8.42339 3.92042 8.5485 4.13463 8.61473 4.3949L9.20328 7.16195C9.23955 7.42107 9.23118 7.65041 9.17818 7.84998C9.1252 8.04954 9.0265 8.21725 8.88208 8.3531L6.5391 10.6346C6.96047 11.3718 7.41613 12.0591 7.90608 12.6965C8.39605 13.3339 8.92607 13.9357 9.49616 14.5019C10.0945 15.1113 10.7308 15.6705 11.4051 16.1795C12.0795 16.6885 12.8032 17.1545 13.5763 17.5776L15.8372 15.2667C16.0005 15.0902 16.188 14.9699 16.3997 14.9058C16.6115 14.8417 16.8321 14.8263 17.0616 14.8596L19.6051 15.4045C19.8688 15.4669 20.0838 15.6002 20.2503 15.8044C20.4167 16.0086 20.5 16.2401 20.5 16.4987V19.4128C20.5 19.7234 20.3955 19.9822 20.1866 20.1893C19.9777 20.3964 19.7165 20.5 19.4032 20.5ZM5.92436 9.47565L7.89488 7.5718C7.92266 7.54615 7.94136 7.51088 7.95098 7.466C7.9606 7.42113 7.96113 7.37947 7.95258 7.341L7.4436 4.91025C7.43505 4.85895 7.41369 4.82048 7.3795 4.79485C7.34532 4.7692 7.30258 4.75638 7.25128 4.75638H4.89616C4.85771 4.75638 4.82566 4.7692 4.80001 4.79485C4.77436 4.82048 4.76153 4.85253 4.76153 4.891C4.78803 5.58118 4.89711 6.30533 5.08878 7.06345C5.28045 7.82157 5.55897 8.62563 5.92436 9.47565ZM14.7628 18.1756C15.4393 18.5025 16.1685 18.7556 16.9503 18.9349C17.7322 19.1142 18.4517 19.2158 19.109 19.2397C19.1474 19.2397 19.1795 19.2269 19.2051 19.2013C19.2308 19.1756 19.2436 19.1436 19.2436 19.1051V16.7679C19.2436 16.7166 19.2308 16.6739 19.2051 16.6397C19.1795 16.6055 19.141 16.5842 19.0897 16.5756L16.8782 16.1217C16.8398 16.1132 16.8061 16.1137 16.7773 16.1234C16.7484 16.133 16.718 16.1517 16.6859 16.1795L14.7628 18.1756Z" fill="white"/>
</g>
</svg>
