<svg width="40" height="40" viewBox="0 0 40 40" fill="none" xmlns="http://www.w3.org/2000/svg">
<mask id="mask0_28_134" style="mask-type:alpha" maskUnits="userSpaceOnUse" x="0" y="0" width="40" height="40">
<rect width="40" height="40" fill="#D9D9D9"/>
</mask>
<g mask="url(#mask0_28_134)">
<path d="M6.90167 19.9636L14.0876 27.1495C14.2884 27.3504 14.3887 27.5934 14.3883 27.8787C14.388 28.1639 14.282 28.4123 14.0705 28.6239C13.859 28.8354 13.6104 28.9411 13.3248 28.9411C13.0392 28.9411 12.7906 28.8354 12.5791 28.6239L4.82375 20.8685C4.68628 20.731 4.58835 20.589 4.52996 20.4422C4.47155 20.2955 4.44234 20.1331 4.44234 19.9551C4.44234 19.7841 4.47155 19.6253 4.52996 19.4786C4.58835 19.3318 4.68628 19.1862 4.82375 19.0416L12.641 11.235C12.8476 11.0285 13.0949 10.9225 13.383 10.9172C13.6711 10.9118 13.9238 11.0178 14.141 11.235C14.3511 11.4451 14.4562 11.6933 14.4562 11.9796C14.4562 12.266 14.3511 12.5142 14.141 12.7243L6.90167 19.9636ZM33.0983 19.9572L25.9124 12.7606C25.7116 12.5597 25.6113 12.3167 25.6117 12.0314C25.612 11.7462 25.718 11.5014 25.9295 11.297C26.141 11.0854 26.3896 10.9796 26.6752 10.9796C26.9608 10.9796 27.2094 11.0854 27.4209 11.297L35.1763 19.0416C35.3137 19.1862 35.4134 19.3318 35.4754 19.4786C35.5373 19.6253 35.5683 19.7841 35.5683 19.9551C35.5683 20.1331 35.5373 20.2955 35.4754 20.4422C35.4134 20.589 35.3137 20.731 35.1763 20.8685L27.359 28.6858C27.1524 28.8924 26.9094 28.994 26.6298 28.9908C26.3503 28.9876 26.1054 28.8774 25.8953 28.6602C25.6781 28.4429 25.5695 28.1929 25.5695 27.9102C25.5695 27.6274 25.6781 27.3775 25.8953 27.1602L33.0983 19.9572Z" fill="white"/>
</g>
</svg>
