<svg width="30" height="30" viewBox="0 0 30 30" fill="none" xmlns="http://www.w3.org/2000/svg">
<path d="M5.68755 23.75C4.62505 23.75 3.80213 23.3802 3.2188 22.6406C2.63547 21.901 2.41672 21 2.56255 19.9375L3.87505 10.5625C4.06255 9.3125 4.61984 8.28125 5.54692 7.46875C6.47401 6.65625 7.56255 6.25 8.81255 6.25H21.1875C22.4375 6.25 23.5261 6.65625 24.4532 7.46875C25.3803 8.28125 25.9375 9.3125 26.125 10.5625L27.4375 19.9375C27.5834 21 27.3646 21.901 26.7813 22.6406C26.198 23.3802 25.375 23.75 24.3125 23.75C23.875 23.75 23.4688 23.6719 23.0938 23.5156C22.7188 23.3594 22.375 23.125 22.0625 22.8125L19.25 20H10.75L7.93755 22.8125C7.62505 23.125 7.2813 23.3594 6.9063 23.5156C6.5313 23.6719 6.12505 23.75 5.68755 23.75ZM6.18755 21.0625L9.75005 17.5H20.25L23.8125 21.0625C23.8542 21.1042 24.0209 21.1667 24.3125 21.25C24.5417 21.25 24.724 21.1823 24.8594 21.0469C24.9948 20.9115 25.0417 20.7292 25 20.5L23.625 10.875C23.5417 10.2708 23.2709 9.76562 22.8125 9.35938C22.3542 8.95312 21.8125 8.75 21.1875 8.75H8.81255C8.18755 8.75 7.64588 8.95312 7.18755 9.35938C6.72922 9.76562 6.45838 10.2708 6.37505 10.875L5.00005 20.5C4.95838 20.7292 5.00526 20.9115 5.14067 21.0469C5.27609 21.1823 5.45838 21.25 5.68755 21.25C5.72922 21.25 5.89588 21.1875 6.18755 21.0625ZM21.25 16.25C21.6042 16.25 21.9011 16.1302 22.1407 15.8906C22.3803 15.651 22.5 15.3542 22.5 15C22.5 14.6458 22.3803 14.349 22.1407 14.1094C21.9011 13.8698 21.6042 13.75 21.25 13.75C20.8959 13.75 20.599 13.8698 20.3594 14.1094C20.1198 14.349 20 14.6458 20 15C20 15.3542 20.1198 15.651 20.3594 15.8906C20.599 16.1302 20.8959 16.25 21.25 16.25ZM18.75 12.5C19.1042 12.5 19.4011 12.3802 19.6407 12.1406C19.8803 11.901 20 11.6042 20 11.25C20 10.8958 19.8803 10.599 19.6407 10.3594C19.4011 10.1198 19.1042 10 18.75 10C18.3959 10 18.099 10.1198 17.8594 10.3594C17.6198 10.599 17.5 10.8958 17.5 11.25C17.5 11.6042 17.6198 11.901 17.8594 12.1406C18.099 12.3802 18.3959 12.5 18.75 12.5ZM9.68755 16.25H11.5625V14.0625H13.75V12.1875H11.5625V10H9.68755V12.1875H7.50005V14.0625H9.68755V16.25Z" fill="white"/>
</svg>
