<svg width="24" height="24" viewBox="0 0 24 24" fill="none" xmlns="http://www.w3.org/2000/svg">
<path d="M12 2C6.477 2 2 6.477 2 12C2 16.4435 4.9005 20.2055 8.91 21.508H15.09C19.0995 20.2055 22 16.4435 22 12C22 6.477 17.523 2 12 2Z" fill="white"/>
<path opacity="0.05" d="M15.005 20.998L15 18.099C15 17.6295 14.89 17.171 14.679 16.7555C17.4995 16.189 18.872 14.5215 18.872 11.667C18.872 10.5395 18.5395 9.54401 17.884 8.70701C17.934 8.54851 17.971 8.38451 17.994 8.21651C18.088 7.53201 17.9825 7.08451 17.8975 6.72451L17.884 6.66651C17.791 6.26851 17.6795 5.98451 17.675 5.97251L17.6195 5.83151L17.564 5.69051L17.413 5.67451L17.2615 5.65851C17.2615 5.65851 17.162 5.64801 17.011 5.64801C16.8015 5.64801 16.491 5.66901 16.1975 5.76851L16.0995 5.80151C15.7295 5.92601 15.38 6.04401 14.891 6.33601C14.748 6.42151 14.5915 6.51901 14.424 6.62801C13.667 6.44051 12.8525 6.34501 12 6.34501C11.139 6.34501 10.3175 6.44101 9.55551 6.63051C9.38601 6.52051 9.22851 6.42201 9.08451 6.33601C8.59551 6.04401 8.24601 5.92651 7.87601 5.80151L7.77801 5.76851C7.48551 5.66901 7.17451 5.64801 6.96501 5.64801C6.81401 5.64801 6.71451 5.65851 6.71451 5.65851L6.56351 5.67451L6.41351 5.69001L6.35751 5.83051L6.30101 5.97201C6.29601 5.98501 6.18451 6.26901 6.09151 6.66751L6.07801 6.72501C5.99301 7.08451 5.88751 7.53251 5.98151 8.21651C6.00551 8.38951 6.04401 8.55901 6.09651 8.72201C5.45401 9.55501 5.12851 10.545 5.12851 11.667C5.12851 14.5145 6.50251 16.181 9.32701 16.752C9.23001 16.946 9.15451 17.151 9.10101 17.364C9.00251 17.3975 8.91201 17.42 8.83201 17.4325C8.71301 17.4505 8.58851 17.4595 8.46251 17.4595C8.11951 17.4595 7.85001 17.3925 7.74501 17.33C7.58851 17.237 7.30901 16.9665 7.03801 16.571C6.80651 16.2335 6.44551 15.792 6.04201 15.6075C5.69301 15.448 5.32351 15.3565 5.02751 15.3565C4.95851 15.3565 4.89501 15.3615 4.83951 15.3705C4.58101 15.4115 4.36501 15.5535 4.24751 15.7605C4.14601 15.939 4.13001 16.147 4.20351 16.331C4.31301 16.605 4.62901 16.8235 4.87501 16.9585C4.99601 17.025 5.25751 17.268 5.41001 17.513C5.52451 17.697 5.57751 17.828 5.65101 18.009C5.69451 18.1165 5.74251 18.2335 5.80751 18.375C6.04251 18.886 6.77601 19.337 6.85901 19.3865C7.26201 19.628 7.93951 19.7055 8.43751 19.728L8.49901 19.7295H8.49951C8.61951 19.7295 8.78451 19.718 9.00151 19.694V21.0005C9.00251 21.265 8.73301 21.325 8.37651 21.3195L8.65001 21.4115C9.69751 21.786 10.8225 22 12 22C13.1775 22 14.3025 21.786 15.3515 21.412L15.703 21.281C15.3475 21.269 15.008 21.211 15.005 20.998Z" fill="black"/>
<path opacity="0.07" d="M15.3905 21.3985C15.1875 21.422 14.75 21.344 14.75 21.001V18.099C14.75 17.552 14.586 17.0235 14.282 16.573C17.2395 16.0945 18.6215 14.5265 18.6215 11.667C18.6215 10.5485 18.2785 9.57001 17.602 8.75601C17.6705 8.57351 17.7185 8.38101 17.746 8.18251C17.8335 7.54451 17.738 7.13951 17.654 6.78201L17.6405 6.72401C17.5515 6.34351 17.4465 6.07551 17.442 6.06451L17.3865 5.92351L17.235 5.90751C17.235 5.90751 17.146 5.89801 17.0105 5.89801C16.82 5.89801 16.5385 5.91651 16.2775 6.00551L16.1795 6.03851C15.8225 6.15901 15.485 6.27251 15.019 6.55051C14.853 6.64951 14.668 6.76601 14.4685 6.89751C13.702 6.69701 12.8725 6.59501 12 6.59501C11.119 6.59501 10.2825 6.69751 9.51049 6.90001C9.30899 6.76751 9.12299 6.65051 8.95599 6.55051C8.48999 6.27251 8.15249 6.15851 7.79549 6.03851L7.69749 6.00551C7.43699 5.91701 7.15499 5.89801 6.96449 5.89801C6.82899 5.89801 6.73999 5.90751 6.73999 5.90751L6.58899 5.92351L6.53249 6.06501C6.52799 6.07601 6.42299 6.34401 6.33399 6.72451L6.32049 6.78251C6.23599 7.14001 6.14049 7.54451 6.22849 8.18251C6.25649 8.38601 6.30649 8.58301 6.37749 8.76951C5.71399 9.57951 5.37799 10.553 5.37799 11.667C5.37799 14.5185 6.76099 16.086 9.72099 16.57C9.52349 16.865 9.38549 17.1975 9.31449 17.552C9.14949 17.617 8.99999 17.66 8.86899 17.68C8.73749 17.7 8.60049 17.71 8.46199 17.71C8.11699 17.71 7.78549 17.6455 7.61699 17.5455C7.39699 17.415 7.08849 17.0885 6.83099 16.713C6.65599 16.458 6.30749 16.0045 5.93699 15.8355C5.61949 15.6905 5.28799 15.607 5.02649 15.607C4.97149 15.607 4.92149 15.611 4.87749 15.618C4.69449 15.647 4.54349 15.744 4.46349 15.885C4.39949 15.997 4.38899 16.1265 4.43399 16.239C4.52349 16.463 4.85499 16.664 4.99349 16.74C5.16099 16.832 5.45299 17.112 5.62049 17.382C5.74599 17.584 5.80549 17.7305 5.88099 17.9155C5.92349 18.02 5.96999 18.134 6.03299 18.2715C6.19849 18.631 6.70949 19.0075 6.98549 19.173C7.36249 19.399 8.06249 19.462 8.44649 19.479L8.50199 19.48C8.65149 19.48 8.90199 19.4575 9.24949 19.4125V21.001C9.24949 21.3905 8.75399 21.406 8.63249 21.406C8.61699 21.406 8.88399 21.498 8.88399 21.498C9.86549 21.82 10.911 22 12 22C13.089 22 14.1345 21.82 15.1155 21.4985C15.1155 21.4985 15.406 21.3965 15.3905 21.3985Z" fill="black"/>
<path d="M18.372 11.667C18.372 10.512 17.981 9.55401 17.3135 8.80301C17.386 8.64051 17.4615 8.42251 17.499 8.14851C17.585 7.52351 17.4835 7.14851 17.3975 6.78151C17.3115 6.41451 17.21 6.15651 17.21 6.15651C17.21 6.15651 16.749 6.10951 16.3585 6.24251C15.968 6.37551 15.632 6.47701 15.1475 6.76601C14.921 6.90101 14.693 7.04901 14.5125 7.16901C13.741 6.95501 12.8925 6.84501 12 6.84501C11.0995 6.84501 10.2435 6.95551 9.46652 7.17101C9.28552 7.05051 9.05602 6.90151 8.82802 6.76551C8.34352 6.47651 8.00752 6.37501 7.61702 6.24201C7.22652 6.10901 6.76552 6.15601 6.76552 6.15601C6.76552 6.15601 6.66402 6.41401 6.57802 6.78101C6.49202 7.14801 6.39052 7.52301 6.47652 8.14801C6.51502 8.42901 6.59302 8.65101 6.66752 8.81451C6.01252 9.56101 5.62852 10.513 5.62852 11.6665C5.62852 14.658 7.24452 16.0235 10.189 16.384C9.84552 16.747 9.61502 17.212 9.53752 17.7295C9.34402 17.8145 9.12102 17.8945 8.90652 17.9265C8.35452 18.01 7.77102 17.9265 7.49002 17.76C7.20902 17.5935 6.87552 17.2185 6.62552 16.8535C6.41452 16.5455 6.11002 16.188 5.83402 16.062C5.46952 15.8955 5.11502 15.833 4.91752 15.864C4.71952 15.8955 4.62602 16.041 4.66752 16.1455C4.70902 16.2495 4.90702 16.406 5.11552 16.5205C5.32402 16.635 5.64702 16.9475 5.83452 17.2495C6.04352 17.5865 6.08452 17.781 6.26152 18.166C6.38602 18.437 6.81202 18.7755 7.11552 18.9575C7.37602 19.114 7.89652 19.203 8.45952 19.2285C8.65402 19.2375 9.11352 19.1805 9.50102 19.1255V21.0005C9.50102 21.32 9.20852 21.563 8.90552 21.507C9.87802 21.834 10.9165 22 12 22C13.083 22 14.1215 21.834 15.095 21.508C14.7925 21.5635 14.5 21.3205 14.5 21.001V18.099C14.5 17.4345 14.2365 16.834 13.8135 16.3865C16.7365 16.0355 18.372 14.7025 18.372 11.667ZM5.61952 16.3635C5.54252 16.324 5.50102 16.251 5.52702 16.1995C5.55302 16.148 5.63702 16.1385 5.71402 16.178C5.79102 16.2175 5.83252 16.2905 5.80652 16.342C5.78052 16.3935 5.69652 16.403 5.61952 16.3635ZM6.22552 16.741C6.18502 16.785 6.09802 16.771 6.03102 16.71C5.96402 16.649 5.94252 16.5635 5.98302 16.5195C6.02352 16.4755 6.11052 16.4895 6.17752 16.5505C6.24452 16.6115 6.26602 16.697 6.22552 16.741ZM6.60252 17.366C6.55152 17.402 6.46502 17.3685 6.40952 17.291C6.35402 17.2135 6.35052 17.121 6.40152 17.085C6.45252 17.049 6.53902 17.0825 6.59452 17.16C6.64952 17.2375 6.65352 17.33 6.60252 17.366ZM7.14402 17.8365C7.10952 17.8925 7.01152 17.895 6.92552 17.8425C6.83952 17.79 6.79752 17.702 6.83202 17.646C6.86652 17.59 6.96452 17.5875 7.05052 17.64C7.13652 17.6925 7.17852 17.7805 7.14402 17.8365ZM7.65602 18.297C7.54952 18.284 7.47052 18.2175 7.47952 18.1485C7.48802 18.0795 7.58152 18.0345 7.68752 18.0475C7.79402 18.0605 7.87302 18.127 7.86402 18.196C7.85552 18.2645 7.76252 18.31 7.65602 18.297ZM8.48152 18.4165C8.36802 18.41 8.27952 18.345 8.28402 18.272C8.28852 18.199 8.38402 18.1445 8.49752 18.151C8.61102 18.1575 8.69952 18.2225 8.69502 18.2955C8.69052 18.369 8.59502 18.423 8.48152 18.4165ZM9.26052 18.3385C9.13952 18.3385 9.04152 18.2755 9.04152 18.198C9.04152 18.1205 9.13952 18.0575 9.26052 18.0575C9.38152 18.0575 9.47952 18.1205 9.47952 18.198C9.47952 18.2755 9.38102 18.3385 9.26052 18.3385Z" fill="black"/>
</svg>
