<svg width="24" height="24" viewBox="0 0 24 24" fill="none" xmlns="http://www.w3.org/2000/svg">
<mask id="mask0_28_153" style="mask-type:alpha" maskUnits="userSpaceOnUse" x="0" y="0" width="24" height="24">
<rect width="24" height="24" fill="#D9D9D9"/>
</mask>
<g mask="url(#mask0_28_153)">
<path d="M4.0641 19.5C3.6343 19.5 3.26617 19.3467 2.9597 19.0402C2.65323 18.7338 2.5 18.3657 2.5 17.9359V6.0641C2.5 5.6343 2.65323 5.26617 2.9597 4.9597C3.26617 4.65323 3.6343 4.5 4.0641 4.5H19.9359C20.3657 4.5 20.7338 4.65323 21.0403 4.9597C21.3467 5.26617 21.5 5.6343 21.5 6.0641V17.9359C21.5 18.3657 21.3467 18.7338 21.0403 19.0402C20.7338 19.3467 20.3657 19.5 19.9359 19.5H4.0641ZM20.2436 6.89095L12.4288 12.0083C12.3587 12.045 12.2895 12.0759 12.2211 12.1009C12.1528 12.1259 12.079 12.1384 12 12.1384C11.9209 12.1384 11.8472 12.1259 11.7788 12.1009C11.7104 12.0759 11.6433 12.045 11.5775 12.0083L3.75638 6.89095V17.9359C3.75638 18.0256 3.78523 18.0993 3.84293 18.157C3.90063 18.2147 3.97435 18.2436 4.0641 18.2436H19.9359C20.0256 18.2436 20.0993 18.2147 20.157 18.157C20.2147 18.0993 20.2436 18.0256 20.2436 17.9359V6.89095ZM12 10.9731L20.0423 5.75638H3.97435L12 10.9731ZM3.75638 7.09095V6.18633V6.21293V5.75638V6.20445V6.17225V7.09095Z" fill="white"/>
</g>
</svg>
