<svg width="30" height="30" viewBox="0 0 30 30" fill="none" xmlns="http://www.w3.org/2000/svg">
<path d="M6.81253 18.0938C6.31253 18.3646 5.78128 18.4219 5.21878 18.2656C4.65628 18.1094 4.2292 17.7917 3.93753 17.3125C3.58337 16.7083 3.52087 16.0833 3.75003 15.4375C3.9792 14.7917 4.42712 14.3542 5.09378 14.125L15.625 10.625L16.75 12.8438L6.81253 18.0938ZM7.50003 26.25V19.1562L18.4063 13.4062L17.875 12.3125L25 8.75L26.125 11L17.5 17.5V26.25H7.50003ZM9.37503 12.5C8.1667 12.5 7.13545 12.0729 6.28128 11.2188C5.42712 10.3646 5.00003 9.33333 5.00003 8.125C5.00003 6.91667 5.42712 5.88542 6.28128 5.03125C7.13545 4.17708 8.1667 3.75 9.37503 3.75C10.5834 3.75 11.6146 4.17708 12.4688 5.03125C13.323 5.88542 13.75 6.91667 13.75 8.125C13.75 9.33333 13.323 10.3646 12.4688 11.2188C11.6146 12.0729 10.5834 12.5 9.37503 12.5Z" fill="white"/>
</svg>
