<svg width="40" height="40" viewBox="0 0 40 40" fill="none" xmlns="http://www.w3.org/2000/svg">
<mask id="mask0_28_78" style="mask-type:alpha" maskUnits="userSpaceOnUse" x="0" y="0" width="40" height="40">
<rect width="40" height="40" fill="#D9D9D9"/>
</mask>
<g mask="url(#mask0_28_78)">
<path d="M24 23.5834L20.0189 27.5548C19.7477 27.8252 19.4187 27.9605 19.0317 27.9605C18.6448 27.9605 18.3173 27.8248 18.0492 27.5534L4.36541 13.8804C4.09405 13.5966 3.95304 13.2878 3.94237 12.9541C3.93168 12.6204 4.0639 12.3154 4.33904 12.0393L8.37254 8.01642C8.64768 7.73417 8.9683 7.5724 9.33441 7.53109C9.7005 7.48976 10.0228 7.60834 10.3012 7.88684L24.016 21.6015C24.2874 21.8729 24.4204 22.2014 24.415 22.5871C24.4097 22.9728 24.2713 23.3049 24 23.5834ZM19.0427 25.5813L22.0278 22.5962L9.38462 9.95301L6.39954 12.9381L19.0427 25.5813ZM30.3419 35.2564L23.8355 28.7393L25.344 27.2308L31.8611 33.7373C32.0619 33.9299 32.165 34.1783 32.1704 34.4827C32.1757 34.787 32.0726 35.0431 31.8611 35.2511C31.6496 35.4591 31.3943 35.563 31.0953 35.563C30.7964 35.563 30.5452 35.4608 30.3419 35.2564ZM31.0563 13.985C29.6556 13.985 28.468 13.4988 27.4936 12.5264C26.5193 11.554 26.0321 10.3674 26.0321 8.96663C26.0321 7.56585 26.5183 6.37828 27.4907 5.40392C28.4631 4.42956 29.6515 3.94238 31.0558 3.94238C32.4602 3.94238 33.6478 4.42859 34.6185 5.40101C35.5893 6.37342 36.0747 7.56002 36.0747 8.9608C36.0747 10.3616 35.5902 11.5492 34.621 12.5235C33.6517 13.4979 32.4635 13.985 31.0563 13.985ZM31.052 11.8911C31.8713 11.8911 32.5643 11.6067 33.1309 11.0378C33.6975 10.469 33.9808 9.77833 33.9808 8.96572C33.9808 8.15313 33.6979 7.46176 33.1322 6.89159C32.5666 6.32142 31.8759 6.03634 31.0601 6.03634C30.2444 6.03634 29.5515 6.32076 28.9813 6.88959C28.4111 7.4584 28.126 8.1491 28.126 8.96172C28.126 9.7743 28.4105 10.4657 28.9795 11.0358C29.5484 11.606 30.2393 11.8911 31.052 11.8911Z" fill="white"/>
</g>
</svg>
