<svg width="40" height="40" viewBox="0 0 40 40" fill="none" xmlns="http://www.w3.org/2000/svg">
<path d="M21.6667 35V31.6667H25V35H21.6667ZM18.3333 31.6667V23.3333H21.6667V31.6667H18.3333ZM31.6667 26.6667V20H35V26.6667H31.6667ZM28.3333 20V16.6667H31.6667V20H28.3333ZM8.33333 23.3333V20H11.6667V23.3333H8.33333ZM5 20V16.6667H8.33333V20H5ZM20 8.33333V5H23.3333V8.33333H20ZM7.5 12.5H12.5V7.5H7.5V12.5ZM5 15V5H15V15H5ZM7.5 32.5H12.5V27.5H7.5V32.5ZM5 35V25H15V35H5ZM27.5 12.5H32.5V7.5H27.5V12.5ZM25 15V5H35V15H25ZM28.3333 35V30H25V26.6667H31.6667V31.6667H35V35H28.3333ZM21.6667 23.3333V20H28.3333V23.3333H21.6667ZM15 23.3333V20H11.6667V16.6667H21.6667V20H18.3333V23.3333H15ZM16.6667 15V8.33333H20V11.6667H23.3333V15H16.6667ZM8.75 11.25V8.75H11.25V11.25H8.75ZM8.75 31.25V28.75H11.25V31.25H8.75ZM28.75 11.25V8.75H31.25V11.25H28.75Z" fill="white"/>
</svg>
