<svg width="40" height="40" viewBox="0 0 40 40" fill="none" xmlns="http://www.w3.org/2000/svg">
<mask id="mask0_28_140" style="mask-type:alpha" maskUnits="userSpaceOnUse" x="0" y="0" width="40" height="40">
<rect width="40" height="40" fill="#D9D9D9"/>
</mask>
<g mask="url(#mask0_28_140)">
<path d="M6.77355 32.4999C6.05722 32.4999 5.44366 32.2445 4.93288 31.7337C4.42211 31.223 4.16672 30.6094 4.16672 29.8931V10.1068C4.16672 9.3905 4.42211 8.77694 4.93288 8.26617C5.44366 7.75539 6.05722 7.5 6.77355 7.5H33.2265C33.9428 7.5 34.5564 7.75539 35.0671 8.26617C35.5779 8.77694 35.8333 9.3905 35.8333 10.1068V29.8931C35.8333 30.6094 35.5779 31.223 35.0671 31.7337C34.5564 32.2445 33.9428 32.4999 33.2265 32.4999H6.77355ZM6.77355 30.406H33.2265C33.3547 30.406 33.4722 30.3525 33.5791 30.2457C33.6859 30.1388 33.7393 30.0213 33.7393 29.8931V13.0064H6.26068V29.8931C6.26068 30.0213 6.31411 30.1388 6.42097 30.2457C6.5278 30.3525 6.64533 30.406 6.77355 30.406ZM15.3334 21.7115L11.7372 18.1046C11.5307 17.9052 11.4293 17.6634 11.433 17.3791C11.4368 17.0949 11.5467 16.8488 11.7628 16.641C11.9694 16.4402 12.2151 16.341 12.5 16.3435C12.7849 16.346 13.0306 16.4505 13.2372 16.657L17.3782 20.798C17.6381 21.0574 17.7681 21.3599 17.7681 21.7057C17.7681 22.0514 17.6381 22.3543 17.3782 22.6143L13.2211 26.7713C13.0203 26.9793 12.7794 27.0802 12.4984 27.0742C12.2174 27.0681 11.9722 26.9618 11.7628 26.7553C11.562 26.5544 11.4616 26.3158 11.4616 26.0395C11.4616 25.7631 11.562 25.5245 11.7628 25.3237L15.3334 21.7115ZM21.6667 27.7585C21.3649 27.7585 21.1149 27.6594 20.9168 27.4613C20.7188 27.2632 20.6197 27.0132 20.6197 26.7113C20.6197 26.4094 20.7188 26.1595 20.9168 25.9615C21.1149 25.7635 21.3649 25.6645 21.6667 25.6645H28.3333C28.6351 25.6645 28.8851 25.7636 29.0832 25.9617C29.2813 26.1598 29.3803 26.4098 29.3803 26.7117C29.3803 27.0135 29.2813 27.2635 29.0832 27.4615C28.8851 27.6595 28.6351 27.7585 28.3333 27.7585H21.6667Z" fill="white"/>
</g>
</svg>
