<svg width="40" height="40" viewBox="0 0 40 40" fill="none" xmlns="http://www.w3.org/2000/svg">
<mask id="mask0_28_84" style="mask-type:alpha" maskUnits="userSpaceOnUse" x="0" y="0" width="40" height="40">
<rect width="40" height="40" fill="#D9D9D9"/>
</mask>
<g mask="url(#mask0_28_84)">
<path d="M9.17733 31.656V33.5414C9.17733 33.8395 9.07646 34.0877 8.87471 34.286C8.67296 34.4842 8.42296 34.5833 8.12471 34.5833C7.82648 34.5833 7.57837 34.483 7.38037 34.2823C7.18237 34.0817 7.08337 33.833 7.08337 33.5364V6.46371C7.08337 6.16707 7.18425 5.91841 7.386 5.71775C7.58775 5.51708 7.83773 5.41675 8.13596 5.41675C8.43421 5.41675 8.68233 5.51708 8.88033 5.71775C9.07833 5.91841 9.17733 6.16707 9.17733 6.46371V8.34408H14.156V6.71508C14.156 6.34436 14.2809 6.03529 14.5307 5.78787C14.7806 5.54046 15.0901 5.41675 15.4594 5.41675H24.5406C24.9099 5.41675 25.2194 5.54165 25.4692 5.79146C25.7191 6.04129 25.844 6.35085 25.844 6.72012V8.34408H30.8227V6.45867C30.8227 6.16058 30.9235 5.9124 31.1253 5.71412C31.327 5.51587 31.577 5.41675 31.8753 5.41675C32.1735 5.41675 32.4216 5.51708 32.6196 5.71775C32.8176 5.91841 32.9166 6.16707 32.9166 6.46371V33.5364C32.9166 33.833 32.8157 34.0817 32.614 34.2823C32.4122 34.483 32.1623 34.5833 31.864 34.5833C31.5658 34.5833 31.3177 34.483 31.1197 34.2823C30.9217 34.0817 30.8227 33.833 30.8227 33.5364V31.656H25.844V33.285C25.844 33.6557 25.7191 33.9648 25.4692 34.2122C25.2194 34.4596 24.9099 34.5833 24.5406 34.5833H15.4594C15.0901 34.5833 14.7806 34.4584 14.5307 34.2086C14.2809 33.9588 14.156 33.6492 14.156 33.28V31.656H9.17733ZM9.17733 29.562H14.156V24.5833H9.17733V29.562ZM9.17733 22.4894H14.156V17.5107H9.17733V22.4894ZM9.17733 15.4167H14.156V10.438H9.17733V15.4167ZM25.844 29.562H30.8227V24.5833H25.844V29.562ZM25.844 22.4894H30.8227V17.5107H25.844V22.4894ZM25.844 15.4167H30.8227V10.438H25.844V15.4167ZM16.25 32.4894H23.75V7.51071H16.25V32.4894Z" fill="white"/>
</g>
</svg>
