<svg width="40" height="40" viewBox="0 0 40 40" fill="none" xmlns="http://www.w3.org/2000/svg">
<mask id="mask0_28_85" style="mask-type:alpha" maskUnits="userSpaceOnUse" x="0" y="0" width="40" height="40">
<rect width="40" height="40" fill="#D9D9D9"/>
</mask>
<g mask="url(#mask0_28_85)">
<path d="M24.782 30.6068L23.3912 34.4109C23.2785 34.6925 23.0962 34.9251 22.8441 35.1089C22.5921 35.2927 22.3114 35.3846 22.0021 35.3846C21.4786 35.3846 21.0696 35.1714 20.7751 34.7451C20.4806 34.3188 20.4302 33.8551 20.6239 33.3539L26.47 17.8813C26.5911 17.5993 26.7715 17.3691 27.0112 17.1907C27.2508 17.0123 27.5255 16.9231 27.8351 16.9231H28.996C29.3056 16.9231 29.5808 17.01 29.8215 17.1838C30.0623 17.3576 30.2457 17.5855 30.3717 17.8676L36.2969 33.3736C36.502 33.8723 36.4539 34.3322 36.1527 34.7531C35.8514 35.1741 35.4456 35.3846 34.9354 35.3846C34.5924 35.3846 34.2923 35.2864 34.0352 35.0902C33.778 34.894 33.5907 34.6342 33.4732 34.3108L32.2178 30.6068H24.782ZM25.673 27.9145H31.158L28.4657 20.3846H28.3653L25.673 27.9145ZM15.4167 23.0769L8.79386 29.6997C8.499 29.9946 8.14252 30.1392 7.7244 30.1335C7.30632 30.1278 6.94985 29.9775 6.65499 29.6826C6.36013 29.3878 6.2127 29.0285 6.2127 28.6047C6.2127 28.1809 6.36013 27.8215 6.65499 27.5267L13.3889 20.8034C12.4188 19.6986 11.5625 18.575 10.82 17.4326C10.0775 16.2903 9.43025 15.0948 8.87828 13.8462H12.1517C12.6083 14.7301 13.0973 15.5447 13.6186 16.2901C14.14 17.0355 14.7507 17.8113 15.4509 18.6176C16.599 17.3918 17.5522 16.1354 18.3104 14.8484C19.0686 13.5613 19.708 12.2016 20.2286 10.7693H4.64578C4.21039 10.7693 3.84542 10.6219 3.55086 10.327C3.25633 10.0321 3.10907 9.66674 3.10907 9.23085C3.10907 8.79421 3.2565 8.4282 3.55136 8.13281C3.84625 7.83745 4.21164 7.68977 4.64753 7.68977H13.8782V6.14865C13.8782 5.71201 14.0257 5.34733 14.3205 5.0546C14.6154 4.76185 14.9808 4.61548 15.4167 4.61548C15.8528 4.61548 16.2184 4.76292 16.5134 5.05781C16.8085 5.35267 16.956 5.71805 16.956 6.15394V7.6924H26.1919C26.628 7.6924 26.9925 7.83984 27.2852 8.13473C27.5779 8.42959 27.7243 8.79496 27.7243 9.23085C27.7243 9.66674 27.5769 10.0321 27.282 10.327C26.9871 10.6219 26.6218 10.7693 26.1859 10.7693H23.3072C22.7541 12.5513 22.0147 14.2977 21.089 16.0085C20.1633 17.7193 19.0197 19.3361 17.6581 20.859L21.3824 24.6496L20.2286 27.782L15.4167 23.0769Z" fill="white"/>
</g>
</svg>
