<svg width="40" height="40" viewBox="0 0 40 40" fill="none" xmlns="http://www.w3.org/2000/svg">
<path d="M13.3333 35V31.6667H16.6667V28.3333H6.66668C5.75001 28.3333 4.96529 28.0069 4.31251 27.3542C3.65973 26.7014 3.33334 25.9167 3.33334 25V8.33333C3.33334 7.41667 3.65973 6.63194 4.31251 5.97917C4.96529 5.32639 5.75001 5 6.66668 5H33.3333C34.25 5 35.0347 5.32639 35.6875 5.97917C36.3403 6.63194 36.6667 7.41667 36.6667 8.33333V25C36.6667 25.9167 36.3403 26.7014 35.6875 27.3542C35.0347 28.0069 34.25 28.3333 33.3333 28.3333H23.3333V31.6667H26.6667V35H13.3333ZM6.66668 25H33.3333V8.33333H6.66668V25Z" fill="white"/>
</svg>
