<svg width="30" height="30" viewBox="0 0 30 30" fill="none" xmlns="http://www.w3.org/2000/svg">
<path d="M1.25 26.25V23.75H28.75V26.25H1.25ZM5 22.5C4.3125 22.5 3.72396 22.2552 3.23438 21.7656C2.74479 21.276 2.5 20.6875 2.5 20V6.25C2.5 5.5625 2.74479 4.97396 3.23438 4.48438C3.72396 3.99479 4.3125 3.75 5 3.75H25C25.6875 3.75 26.276 3.99479 26.7656 4.48438C27.2552 4.97396 27.5 5.5625 27.5 6.25V20C27.5 20.6875 27.2552 21.276 26.7656 21.7656C26.276 22.2552 25.6875 22.5 25 22.5H5ZM5 20H25V6.25H5V20Z" fill="white"/>
</svg>
